<svg xmlns="http://www.w3.org/2000/svg" xmlns:xlink="http://www.w3.org/1999/xlink" width="500" zoomAndPan="magnify" viewBox="0 0 375 374.999991" height="500" preserveAspectRatio="xMidYMid meet" version="1.0"><defs><g/></defs><g fill="#000000" fill-opacity="1"><g transform="translate(48.228517, 238.874984)"><g><path d="M 132.351562 -145.769531 C 88.578125 -145.769531 75.363281 -84.449219 71.441406 -36.960938 L 24.363281 -145.769531 L 7.226562 -145.769531 L 7.226562 0 L 8.464844 0 L 8.464844 -142.054688 L 14.246094 -128.425781 L 69.996094 0 L 72.058594 0 C 72.058594 -37.578125 75.363281 -123.472656 116.660156 -140.816406 L 116.660156 0 L 132.351562 0 Z M 132.351562 -145.769531 "/></g></g></g><g fill="#000000" fill-opacity="1"><g transform="translate(187.805376, 238.874984)"><g><path d="M 56.160156 -79.285156 C 103.03125 -79.285156 56.574219 0 131.730469 0 L 131.730469 -1.652344 C 117.277344 -1.652344 110.050781 -17.34375 102 -35.515625 C 92.5 -57.195312 85.066406 -80.9375 56.160156 -80.9375 C 48.523438 -80.9375 42.945312 -77.429688 39.4375 -73.917969 C 49.347656 -92.5 62.769531 -108.191406 78.875 -126.570312 C 79.492188 -126.570312 95.597656 -142.878906 110.050781 -145.769531 L 75.777344 -145.769531 C 86.511719 -137.925781 65.246094 -113.5625 65.246094 -113.5625 C 43.359375 -87.546875 27.875 -64.625 22.917969 -26.429688 L 22.917969 -145.769531 L 7.226562 -145.769531 L 7.226562 0 L 22.917969 0 C 22.917969 -27.046875 27.460938 -47.078125 35.101562 -64.625 C 36.960938 -68.757812 43.359375 -79.285156 56.160156 -79.285156 Z M 56.160156 -79.285156 "/></g></g></g></svg>